<?xml version="1.0" encoding="UTF-8"?>
<svg width="105px" height="18px" viewBox="0 0 105 18" version="1.1" xmlns="http://www.w3.org/2000/svg" xmlns:xlink="http://www.w3.org/1999/xlink">
    <!-- Generator: Sketch 41.2 (35397) - http://www.bohemiancoding.com/sketch -->
    <title>Logo</title>
    <desc>Created with Sketch.</desc>
    <defs></defs>
    <g id="Page-1" stroke="none" stroke-width="1" fill="none" fill-rule="evenodd">
        <g id="Desktop-HD" transform="translate(-110.000000, -21.000000)" fill="#535353">
            <g id="Header">
                <g id="Logo" transform="translate(110.000000, 21.000000)">
                    <path d="M11.1906667,17 C11.1816667,17 11.1726667,16.9993333 11.1636667,16.9993333 C10.928,16.986 10.7346667,16.8066667 10.7046667,16.5726667 L9.133,4.409 L7.415,12.528 C7.369,12.7446667 7.183,12.9043333 6.961,12.9156667 C6.73133333,12.9246667 6.53733333,12.7876667 6.47,12.5763333 L4.75566667,7.246 L3.53633333,9.96833333 C3.45733333,10.1443333 3.28266667,10.2576667 3.08933333,10.2576667 L0.489666667,10.2576667 C0.219333333,10.258 0,10.039 0,9.769 C0,9.49833333 0.219333333,9.279 0.489666667,9.279 L2.772,9.279 L4.38366667,5.67966667 C4.46666667,5.49466667 4.65533333,5.38333333 4.85733333,5.39066667 C5.06,5.402 5.235,5.53666667 5.29666667,5.73 L6.83833333,10.5223333 L8.771,1.38866667 C8.82,1.15533333 9.02466667,0.988333333 9.26966667,1.00066667 C9.508,1.01033333 9.70533333,1.19033333 9.73566667,1.42733333 L11.3363333,13.8213333 L12.3606667,9.58833333 C12.4133333,9.36866667 12.6106667,9.21366667 12.8363333,9.21366667 L15.51,9.21366667 C15.7806667,9.21366667 16,9.433 16,9.70333333 C16,9.97366667 15.7806667,10.1933333 15.51,10.1933333 L13.2226667,10.1933333 L11.6663333,16.625 C11.613,16.8456667 11.415,17 11.1906667,17 Z M27.2,17 L33.032,10.256 L33.968,9.128 C34.4320023,8.5679972 34.7439992,8.1680012 34.904,7.928 C35.2400017,7.4479976 35.4799993,6.99200216 35.624,6.56 C35.7360006,6.20799824 35.792,5.84800184 35.792,5.48 C35.792,4.56799544 35.496003,3.82400288 34.904,3.248 C34.311997,2.65599704 33.5440047,2.36 32.6,2.36 C31.4479942,2.36 30.5600031,2.83199528 29.936,3.776 C29.5999983,4.28800256 29.4240001,4.91999624 29.408,5.672 L27.632,5.672 C27.6640002,4.91999624 27.7919989,4.25600288 28.016,3.68 C28.208001,3.1999976 28.4799982,2.760002 28.832,2.36 C29.2480021,1.89599768 29.7119974,1.52800136 30.224,1.256 C30.9280035,0.90399824 31.7279955,0.728 32.624,0.728 C34.0480071,0.728 35.2239954,1.17599552 36.152,2.072 C37.0960047,2.98400456 37.568,4.12799312 37.568,5.504 C37.568,6.57600536 37.1440042,7.71999392 36.296,8.936 C36.0079986,9.35200208 35.6400022,9.81599744 35.192,10.328 C35.0319992,10.536001 34.848001,10.7599988 34.64,11 L30.776,15.368 L37.544,15.368 L37.544,17 L27.2,17 Z M50.096,12.344 L52.064,12.344 L52.064,13.976 L50.096,13.976 L50.096,17 L48.32,17 L48.32,13.976 L40.112,13.976 L50.096,0.104 L50.096,12.344 Z M48.32,12.344 L48.32,5.264 L43.256,12.344 L48.32,12.344 Z M67.568,4.52 C66.9279968,3.8799968 66.2320038,3.38400176 65.48,3.032 C64.5679954,2.61599792 63.6480046,2.408 62.72,2.408 C60.8799908,2.408 59.3440062,3.05599352 58.112,4.352 C56.8959939,5.6320064 56.288,7.20799064 56.288,9.08 C56.288,10.1200052 56.487998,11.0719957 56.888,11.936 C57.2560018,12.7200039 57.7679967,13.3999971 58.424,13.976 C59.6720062,15.0640054 61.1119918,15.608 62.744,15.608 C63.7680051,15.608 64.7599952,15.3600025 65.72,14.864 C66.120002,14.671999 66.5039982,14.4240015 66.872,14.12 C67.1280013,13.927999 67.359999,13.728001 67.568,13.52 L67.568,15.728 C66.767996,16.3040029 65.8960047,16.7199987 64.952,16.976 C64.2159963,17.184001 63.4800037,17.288 62.744,17.288 C60.3759882,17.288 58.4000079,16.4960079 56.816,14.912 C55.2479922,13.3279921 54.464,11.3760116 54.464,9.056 C54.464,6.67198808 55.263992,4.68800792 56.864,3.104 C58.4480079,1.51999208 60.439988,0.728 62.84,0.728 C63.1440015,0.728 63.4319986,0.74399984 63.704,0.776 C64.0880019,0.80800016 64.4719981,0.87199952 64.856,0.968 C65.8160048,1.22400128 66.7199958,1.6719968 67.568,2.312 L67.568,4.52 Z M70.28,17 L72.944,0.104 L79.088,13.616 L85.352,0.08 L87.848,17 L86.024,17 L84.512,5.864 L79.064,17.672 L73.688,5.864 L72.104,17 L70.28,17 Z M102.68,4.784 L91.544,17.72 L91.544,0.992 L93.32,0.992 L93.32,13.256 L104.456,0.32 L104.456,17 L102.68,17 L102.68,4.784 Z"></path>
                </g>
            </g>
        </g>
    </g>
</svg>